<svg xmlns="http://www.w3.org/2000/svg" enable-background="new 0 0 1600 1200" viewBox="0 0 1600 1200"><g id="Bg"><linearGradient id="SVGID_1_" x1="381.872" x2="1299.912" y1="740.595" y2="740.595" gradientUnits="userSpaceOnUse"><stop offset="0" stop-color="#bd8aae"/><stop offset="1" stop-color="#2484c6" stop-opacity="0"/></linearGradient><path fill="url(#SVGID_1_)" d="M1299.912 602.502v21.45c0 7.949-4.251 15.29-11.145 19.246l-429.701 246.61a65.337 65.337 0 0 1-65.198-.088L391.091 657.116a18.442 18.442 0 0 1-9.219-15.97v-21.134c1.34-5.34 4.73-10.24 10.16-13.38l41.44-23.92 78.09 1.78 727.1 16.61 61.25 1.4z"/><path fill="#2a2f6d" d="m1289.162 623.022-6.37 3.68-16.62 9.6-411.98 237.88a63.74 63.74 0 0 1-63.75 0l-368.68-212.87-21.26-12.28-8.48-4.9c-14.43-8.33-14.43-29.16.01-37.5l442.05-255.2a47.782 47.782 0 0 1 47.69-.04l407.36 234.11c14.46 8.32 14.48 29.18.03 37.52z"/><linearGradient id="SVGID_2_" x1="439.19" x2="1357.978" y1="588.566" y2="588.566" gradientUnits="userSpaceOnUse"><stop offset="0" stop-color="#29abe2" stop-opacity="0"/><stop offset=".608" stop-color="#21409a"/><stop offset="1" stop-color="#222457"/></linearGradient><path fill="#242d60" d="m1289.162 623.022-6.37 3.68-16.62 9.6-400.17-231.5-444.24 256.51-21.26-12.28-8.48-4.9c-14.43-8.33-14.43-29.16.01-37.5l442.05-255.2a47.782 47.782 0 0 1 47.69-.04l407.36 234.11c14.46 8.32 14.48 29.18.03 37.52z"/><linearGradient id="SVGID_3_" x1="381.205" x2="1299.987" y1="497.034" y2="497.034" gradientUnits="userSpaceOnUse"><stop offset=".054" stop-color="#1f479a"/><stop offset=".257" stop-color="#3c7fbe"/><stop offset=".697" stop-color="#28a8e0"/><stop offset=".949" stop-color="#29abe2" stop-opacity="0"/></linearGradient><path fill="url(#SVGID_3_)" d="M1299.912 606.092c-.55 6.66-4.13 13.11-10.75 16.93l-6.37 3.68-44.13-25.6-367.69-213.27a20.952 20.952 0 0 0-21.01.01l-338.4 196.65-111.06 64.54-8.48-4.9c-5.42-3.13-8.81-8.02-10.15-13.36-.89-3.53-.89-7.24 0-10.76 1.34-5.34 4.73-10.24 10.16-13.38l41.44-23.92 400.61-231.28a47.782 47.782 0 0 1 47.69-.04l407.36 234.11c6.65 3.82 10.25 10.31 10.78 17 .1 1.19.1 2.4 0 3.59z"/><g opacity=".49"><linearGradient id="SVGID_4_" x1="306.939" x2="569.497" y1="808.976" y2="808.976" gradientUnits="userSpaceOnUse"><stop offset=".257" stop-color="#3c7fbe"/><stop offset=".697" stop-color="#28a8e0"/><stop offset=".949" stop-color="#29abe2" stop-opacity="0"/></linearGradient><path fill="url(#SVGID_4_)" d="m423.886 883.362-113.853-65.739c-4.124-2.381-4.124-8.335 0-10.716l126.325-72.928a13.65 13.65 0 0 1 13.626-.013l116.409 66.902c4.134 2.376 4.14 8.338.011 10.722l-124.301 71.771a18.215 18.215 0 0 1-18.217.001z"/></g><g opacity=".49"><linearGradient id="SVGID_5_" x1="985.773" x2="1102.632" y1="517.948" y2="517.948" gradientUnits="userSpaceOnUse"><stop offset=".257" stop-color="#3c7fbe"/><stop offset=".697" stop-color="#28a8e0"/><stop offset=".949" stop-color="#29abe2" stop-opacity="0"/></linearGradient><path fill="url(#SVGID_5_)" d="M1002.878 542.025c-23.136-13.385-22.754-35.123.849-48.306 23.602-13.183 60.83-13.183 82.727 0s21.516 34.92-.849 48.306c-22.364 13.386-59.591 13.386-82.727 0z"/></g><g opacity=".49"><linearGradient id="SVGID_6_" x1="723.662" x2="793.417" y1="476.733" y2="476.733" gradientUnits="userSpaceOnUse"><stop offset=".257" stop-color="#3c7fbe"/><stop offset=".697" stop-color="#28a8e0"/><stop offset=".949" stop-color="#29abe2" stop-opacity="0"/></linearGradient><path fill="url(#SVGID_6_)" d="M733.872 491.105c-13.81-7.99-13.582-20.965.507-28.835 14.089-7.869 36.31-7.869 49.381 0 13.071 7.869 12.843 20.845-.507 28.835-13.349 7.99-35.571 7.99-49.381 0z"/></g><g opacity=".49"><linearGradient id="SVGID_7_" x1="1108.447" x2="1146.524" y1="645.797" y2="645.797" gradientUnits="userSpaceOnUse"><stop offset=".257" stop-color="#3c7fbe"/><stop offset=".697" stop-color="#28a8e0"/><stop offset=".949" stop-color="#29abe2" stop-opacity="0"/></linearGradient><path fill="url(#SVGID_7_)" d="M1114.021 653.642c-7.538-4.361-7.414-11.444.277-15.74 7.691-4.295 19.821-4.295 26.956 0 7.135 4.295 7.011 11.378-.277 15.74-7.288 4.361-19.418 4.361-26.956 0z"/></g><path fill="#cde9f9" d="M560.042 425.755 387.884 525.876c-6.525 3.795-14.712-.891-14.745-8.44l-.23-53.421a9.812 9.812 0 0 1 4.879-8.524L549.947 355.37c6.525-3.795 14.712.891 14.745 8.44l.23 53.421a9.816 9.816 0 0 1-4.88 8.524z" opacity=".46"/><path fill="#cde9f9" d="M772.988 342.415 600.83 442.536c-6.525 3.795-14.712-.892-14.745-8.44l-.23-53.421a9.812 9.812 0 0 1 4.879-8.524L762.892 272.03c6.525-3.795 14.712.891 14.745 8.44l.23 53.421a9.812 9.812 0 0 1-4.879 8.524z" opacity=".46"/><path fill="#cde9f9" d="M788.66 234.582 616.502 334.704c-6.525 3.795-14.712-.891-14.745-8.44l-.23-53.421a9.812 9.812 0 0 1 4.879-8.524l172.158-100.121c6.525-3.795 14.712.891 14.745 8.44l.23 53.421a9.812 9.812 0 0 1-4.879 8.523z" opacity=".46"/><g opacity=".49"><linearGradient id="SVGID_8_" x1="564.086" x2="688.948" y1="911.046" y2="911.046" gradientUnits="userSpaceOnUse"><stop offset=".257" stop-color="#3c7fbe"/><stop offset=".697" stop-color="#28a8e0"/><stop offset=".949" stop-color="#29abe2" stop-opacity="0"/></linearGradient><path fill="url(#SVGID_8_)" d="M582.981 936.339c-24.984-13.751-25.223-36.39-.531-50.309 24.692-13.919 64.471-14.036 88.397-.259 23.926 13.777 24.165 36.416.531 50.309-23.635 13.894-63.413 14.01-88.397.259z"/></g><g opacity=".46"><linearGradient id="SVGID_9_" x1="989.287" x2="1306.907" y1="356.661" y2="356.661" gradientUnits="userSpaceOnUse"><stop offset=".061" stop-color="#28a8e0"/><stop offset=".998" stop-color="#29abe2" stop-opacity="0"/></linearGradient><path fill="url(#SVGID_9_)" d="M989.286 181.981v197.055a26.967 26.967 0 0 0 13.481 23.354l263.681 152.303c17.98 10.385 40.459-2.59 40.459-23.354V333.178a26.97 26.97 0 0 0-13.554-23.396l-263.681-151.197c-17.98-10.31-40.386 2.67-40.386 23.396z"/></g><path fill="#fff" d="M1120.468 241.769v4.459l18.734 10.806v-4.46zM1120.468 249.915v4.46l18.734 10.805v-4.459zM1120.468 258.061v4.46l18.734 10.806v-4.46zM1261.846 352.214v-4.459l-115.617-66.688v4.46zM1120.468 266.208v4.459l18.734 10.806v-4.46zM1120.468 274.355v4.459l18.734 10.805v-4.46zM1261.846 360.36v-4.459l-115.617-66.687v4.459zM1120.468 298.794v4.459l18.734 10.805v-4.459zM1120.468 306.94v4.46l18.734 10.804v-4.459zM1120.468 339.525v4.46l18.734 10.805v-4.46zM1120.468 347.672v4.459l18.734 10.805v-4.459zM1219.169 404.603l-72.94-42.072v4.46l72.94 42.071zM1223.013 406.82v4.46l38.833 22.398v-4.459zM1182.875 375.522l-36.646-21.138v4.46l36.646 21.138zM1186.72 377.739v4.46l75.126 43.332v-4.459zM1251.963 390.932v4.46l9.883 5.7v-4.459zM1198.179 351.764l-51.95-29.965v4.459l51.95 29.966zM1176.893 274.315l-30.664-17.687v4.46l30.664 17.686zM1227.155 303.306l-46.418-26.774v4.46l46.418 26.774zM1200.102 295.848l-32.681-18.851v4.46l32.681 18.851zM1234.391 315.626l-30.445-17.561v4.46l30.445 17.56zM1238.236 317.843v4.46l23.61 13.618v-4.459zM1152.269 276.405v4.459l24.624 14.202v-4.459zM1252.213 334.052l-71.476-41.227v4.46l71.476 41.226zM1211.291 334.888l-46.71-26.943v4.459l46.71 26.943zM1252.213 358.491l-37.078-21.386v4.46l37.078 21.386zM1248.119 380.568l-46.095-26.587v4.46l46.095 26.587zM1223.013 374.234v4.46l25.106 14.48v-4.459zM1155.27 335.16l-9.041-5.215v4.46l9.041 5.215zM1172.204 344.927v4.46l46.965 27.089v-4.459zM1168.36 342.71l-9.246-5.332v4.459l9.246 5.333zM1210.48 375.152l-51.366-29.628v4.46l51.366 29.627z"/><linearGradient id="SVGID_10_" x1="1010.033" x2="1092.565" y1="271.865" y2="271.865" gradientUnits="userSpaceOnUse"><stop offset=".061" stop-color="#28a8e0"/><stop offset=".998" stop-color="#29abe2" stop-opacity="0"/></linearGradient><path fill="url(#SVGID_10_)" d="M1010.033 184.589v133.076c0 4.361 2.342 8.387 6.134 10.542l64.016 36.381c5.525 3.14 12.382-.85 12.382-7.205v-130.14c0-4.599-2.482-8.84-6.491-11.093l-66.31-37.256c-4.354-2.446-9.731.701-9.731 5.695z"/><linearGradient id="SVGID_11_" x1="1131.809" x2="1172.729" y1="432.904" y2="432.904" gradientUnits="userSpaceOnUse"><stop offset="0" stop-color="#21409a"/><stop offset=".998" stop-color="#bd8aae"/></linearGradient><path fill="url(#SVGID_11_)" d="m1135.87 383.125 34.585 19.97a4.55 4.55 0 0 1 2.274 3.939v72.771c0 2.494-2.7 4.053-4.86 2.806l-33.922-19.586a4.278 4.278 0 0 1-2.139-3.705v-73.85c0-2.084 2.257-3.387 4.062-2.345z" opacity=".5"/><path fill="none" stroke="#fff" stroke-miterlimit="10" stroke-width=".25" d="M1135.984 384.908c-.38-.217-.691-.04-.691.394s.311.971.691 1.193.691.045.691-.394c.001-.439-.31-.976-.691-1.193zM1138.201 386.212c-.38-.217-.691-.04-.691.394s.311.971.691 1.193.691.045.691-.394-.311-.976-.691-1.193zM1140.382 387.406c-.38-.217-.691-.04-.691.394s.311.971.691 1.193c.38.222.691.045.691-.394s-.311-.976-.691-1.193z"/><path fill="#fff" d="M1188.359 417.689v44.058a5.33 5.33 0 0 0 2.658 4.611l28.853 16.706c2.126 1.231 4.787-.303 4.787-2.76V437.05a6.354 6.354 0 0 0-3.196-5.514l-28.663-16.42c-1.977-1.132-4.439.295-4.439 2.573z"/><path fill="#17a1db" d="M1233.794 443.965v43.667a6.023 6.023 0 0 0 3.013 5.218l19.097 11.027c2.289 1.322 5.151-.33 5.151-2.974v-42.07a7.707 7.707 0 0 0-3.854-6.675l-18.798-10.854c-2.048-1.182-4.609.296-4.609 2.661z"/></g><g id="astronaut"><linearGradient id="SVGID_12_" x1="416.41" x2="460.025" y1="580.578" y2="580.578" gradientUnits="userSpaceOnUse"><stop offset="0" stop-color="#21409a"/><stop offset=".998" stop-color="#bd8aae"/></linearGradient><path fill="url(#SVGID_12_)" d="M454.958 567.631s-7.088-5.357-15.638-3.909c-8.55 1.447-20.24 5.497-22.179 9.317-1.939 3.819-.247 12.511 7.844 13.326 8.091.815 15.638 1.14 17.267 2.932 1.629 1.792-5.739 6.168-1.566 7.971s17.856-2.595 19.159-6.668-4.887-22.969-4.887-22.969z"/><linearGradient id="SVGID_13_" x1="668.134" x2="711.896" y1="751.666" y2="751.666" gradientUnits="userSpaceOnUse"><stop offset="0" stop-color="#21409a"/><stop offset=".998" stop-color="#bd8aae"/></linearGradient><path fill="url(#SVGID_13_)" d="M692.949 729.712s13.277 6.048 16.615 12.543c3.339 6.495 3.163 8.381-.977 6.842-4.14-1.539-6.679-3.384-6.679-3.384s1.623 12.094 4.072 15.275 4.561 10.751-8.796 12.054c-13.357 1.303-23.457 1.955-26.878-15.964-3.421-17.919-1.779-26.605-1.779-26.605l24.422-.761z"/><path fill="#fff" d="M686.372 533.991c-.475 3.532-1.23 6.67-2.214 9.455-5.255 14.991-16.889 19.894-24.552 20.94-9.077 1.248-50.096-15.36-50.096-15.36s-12.698-18.849-4.244-40.351c7.724-19.64 29.49-29.446 49.789-25.966 1.916.316 3.822.764 5.703 1.336 21.757 6.58 28.611 27.45 25.614 49.946z"/><g opacity=".38"><linearGradient id="SVGID_14_" x1="602.362" x2="687.039" y1="523.235" y2="523.235" gradientUnits="userSpaceOnUse"><stop offset="0" stop-color="#cde9f9"/><stop offset=".558" stop-color="#e7f6fd"/></linearGradient><path fill="url(#SVGID_14_)" d="M686.372 533.991c-.475 3.532-1.23 6.67-2.214 9.455-5.255 14.991-16.889 19.894-24.552 20.94-3.787.518-13.111-2.065-22.715-5.255-13.427-4.455-27.381-10.105-27.381-10.105s-12.698-18.849-4.244-40.351c3.278-8.322 9.068-14.886 16.213-19.402 9.701-6.16 21.88-8.568 33.576-6.564 1.916.316 3.822.764 5.703 1.336 21.757 6.58 28.611 27.45 25.614 49.946z"/></g><g opacity=".52"><linearGradient id="SVGID_15_" x1="602.362" x2="636.891" y1="524.202" y2="524.202" gradientUnits="userSpaceOnUse"><stop offset="0" stop-color="#bd8aae"/><stop offset="1" stop-color="#2484c6" stop-opacity="0"/></linearGradient><path fill="url(#SVGID_15_)" d="M636.891 559.131c-13.427-4.455-27.381-10.105-27.381-10.105s-12.698-18.849-4.244-40.351c3.278-8.322 9.068-14.886 16.213-19.402-8.067 9.728-10.255 22.979-6.722 40.096 2.6 12.618 12.916 22.873 22.134 29.762z"/></g><path fill="#fff" d="M698.463 732.097s-6 3.54-15.78 4.16c-9.77.62-16.61-1.98-16.61-1.98s-16.29-57.02-17.59-70.37c-1.31-13.36-2.61-31.66-2.61-31.66s-.27.28-.76.82c-4.44 4.85-27.15 30.55-35.73 57.88-9.53 30.35-41.58 84.35-53.21 104.4-11.62 20.05-29.21 19.07-38.99 19.07-1.52 0-4.05-.14-7.24-.39-17.3-1.32-53.94-5.58-53.94-5.58s-6.6 19.43-22.07 25.08c-15.46 5.65-16.16 3.45-16.77-5.43-.61-8.87 14.99-49.52 22.48-52.12 7.5-2.61 9.8 2.81 27.22.91 17.42-1.89 55.59-5.72 55.59-5.72s7.57-12.48 12.88-30.39c4.47-15.06 5.18-28.05 5.29-31.8.02-.71.02-1.09.02-1.09s-41.05 30.3-47.89 33.23c-6.81 2.92-75.27 12.61-89.72 12.7h-.2s-7.82 17.27-19.22 24.44c-11.41 7.17-24.76 9.26-24.44 5.28.33-3.98 10.1-32.32 26.72-48.94 0 0 4.88-5.86 13.68-4.23 0 0 69.67-12.88 76.7-21.27 7.03-8.38 42-61.48 51.23-78.75 9.23-17.27 14.67-34.94 14.67-34.94s-.13.01-.38.02c-2.78.12-20.27.8-26.89-1.01-7.19-1.97-56.36-1.86-56.36-1.86s-6.4-4.72-7.9-12.32c-.3-1.47-.41-3.05-.25-4.73.98-10.32 2.61-9.46 2.61-9.46s55.17-.53 74.5-5.09c0 0 19.07-5.92 26.67-10.31 7.61-4.39 33.77-11.67 71.59-3.51 37.81 8.17 77.4 25.79 70.19 59.45-7.2 33.66-12.55 41.61-7.62 67.31 4.93 25.69 3.75 51.25 10.13 58.2z"/><g opacity=".04"><linearGradient id="SVGID_16_" x1="359.166" x2="698.462" y1="690.044" y2="690.044" gradientUnits="userSpaceOnUse"><stop offset=".061" stop-color="#28a8e0"/><stop offset=".998" stop-color="#29abe2" stop-opacity="0"/></linearGradient><path fill="url(#SVGID_16_)" d="M698.462 732.102s-.45.27-1.31.66c-1.73.81-5.12 2.16-9.8 2.96-1.44.24-3 .43-4.67.54-9.77.62-16.61-1.98-16.61-1.98s-5.73-20.07-10.67-39.19c0-.01 0-.03-.01-.04-3.38-13.08-6.38-25.71-6.91-31.14-1.31-13.36-2.61-31.66-2.61-31.66s-.27.28-.76.82c-.21.23-.45.5-.74.82v.01c-.45.5-.99 1.1-1.61 1.8-7.35 8.43-25.83 31.21-33.38 55.25-9.53 30.35-41.58 84.35-53.21 104.4-11.62 20.05-29.21 19.07-38.99 19.07-1.52 0-4.05-.14-7.24-.39-17.3-1.32-53.94-5.58-53.94-5.58s-6.6 19.43-22.07 25.08c-15.46 5.65-16.16 3.45-16.77-5.43-.61-8.87 14.99-49.52 22.48-52.12 5.22-1.82 7.92.25 14.94 1.04 3.07.35 6.98.45 12.28-.13 17.42-1.89 55.59-5.72 55.59-5.72s7.57-12.48 12.88-30.39c4.47-15.06 5.18-28.05 5.29-31.8.02-.71.02-1.09.02-1.09s-.29.22-.83.61c-5.85 4.3-40.8 29.94-47.06 32.62-6.81 2.92-75.27 12.61-89.72 12.7h-.2s-7.82 17.27-19.22 24.44c-11.41 7.17-24.76 9.26-24.44 5.28.33-3.98 10.1-32.32 26.72-48.94 0 0 4.88-5.86 13.68-4.23 0 0 69.67-12.88 76.7-21.27 7.03-8.38 42-61.48 51.23-78.75s14.67-34.94 14.67-34.94-.13.01-.38.02c-2.78.12-20.27.8-26.89-1.01-7.19-1.97-56.36-1.86-56.36-1.86s-6.4-4.72-7.9-12.32c-.3-1.47-.41-3.05-.25-4.73.98-10.32 2.61-9.46 2.61-9.46s55.17-.53 74.5-5.09c0 0 17.92-5.56 25.94-9.9l.73-.41c7.61-4.39 33.77-11.67 71.59-3.51 37.81 8.17 77.4 25.79 70.19 59.45-7.2 33.66-12.55 41.61-7.62 67.31 4.93 25.69 3.75 51.25 10.13 58.2z"/></g><path fill="#17a1db" d="M436.69 778.381s10.174-2.081 8.927 12.254c-1.247 14.335-8.546 31.415-12.618 38.01-4.072 6.594-15.261 8.423-15.71 1.089-.448-7.334 6.671-32.819 19.401-51.353z"/><g opacity=".52"><linearGradient id="SVGID_17_" x1="509.943" x2="663.025" y1="699.863" y2="699.863" gradientUnits="userSpaceOnUse"><stop offset="0" stop-color="#bd8aae"/><stop offset="1" stop-color="#2484c6" stop-opacity="0"/></linearGradient><path fill="url(#SVGID_17_)" d="M661.183 588.317c-8.14 11-13.47 32.17-16.07 44.75-4.44 4.85-27.15 30.55-35.73 57.88-9.53 30.35-41.58 84.35-53.21 104.4-11.62 20.05-29.21 19.07-38.99 19.07-1.52 0-4.05-.14-7.24-.39 10.65-2.34 23.11-6.25 31.68-12.64 17.91-13.36 16.61-45.29 49.19-111.35s82.43-118.01 70.37-101.72z"/></g><path fill="#17a1db" d="M388.097 732.697s8.544-3.474 6.915 7.277c-1.629 10.751-12.706 28.67-19.873 34.86-7.167 6.19-16.117 6.352-12.783-1.55 3.335-7.901 11.766-28.459 25.741-40.587z"/><path fill="#cde9f9" d="M603.413 718.857c-.65 4.12-20.47 44.98-24.03 47.36-1.84 1.22-4.93 1.12-7.27-.31-2.2-1.34-3.76-3.85-3.02-7.53 1.39-6.94 11.11-31.28 19.24-43.88a5.173 5.173 0 0 1 6.04-2.09c1 .34 2.09.76 3.17 1.23 3.18 1.37 6.18 3.22 5.87 5.22z"/><linearGradient id="SVGID_18_" x1="403.032" x2="542.322" y1="715.472" y2="715.472" gradientUnits="userSpaceOnUse"><stop offset="0" stop-color="#2484c6" stop-opacity="0"/><stop offset=".964" stop-color="#aecfdc"/></linearGradient><path fill="url(#SVGID_18_)" d="M541.272 702.482c-.01 2 .46 3.27-.63 5.41 0 0-41.05 30.3-47.89 33.23-1.71.73-7.3 1.89-14.95 3.22-22.82 3.96-63.95 9.41-74.77 9.48.4-6.16.45-10.75.45-10.75s31.28-4.56 67.77-13.36c36.48-8.79 71.07-52.59 71.07-52.59-.91 3.18-1.02 11.48-1.04 18.36-.01 2.68 0 5.14-.01 7z"/><path fill="#cde9f9" d="M533.013 815.087c-3.12 2.1-41.24 4.73-61.76-3.18 0 0 .41-1.72 1.22-3.45.79-1.7 1.96-3.4 3.5-3.49 3.09-.16 30.62 1.67 41.21 1.41 8.72-.22 15.94 4.4 16.46 7.22.12.6-.08 1.12-.63 1.49zM472.843 744.997c-.29.87-1.15 1.79-2.9 2.63-4.72 2.28-46.1 8.6-53.92 8.13 0 0-.26-1.03-.34-2.28-.13-1.68.06-3.75 1.59-4.22 2.66-.81 52.27-8.64 53.92-7.69 1.05.6 2.15 1.95 1.65 3.43z"/><linearGradient id="SVGID_19_" x1="525.937" x2="641.264" y1="608.495" y2="608.495" gradientUnits="userSpaceOnUse"><stop offset=".061" stop-color="#28a8e0"/><stop offset=".998" stop-color="#29abe2" stop-opacity="0"/></linearGradient><path fill="url(#SVGID_19_)" d="M592.446 660.556c-5.32 6.28-34.42-1.76-44.63-4.8-9.79-2.92-24.78-5.55-21.39-18.29.15-.54.32-1.11.54-1.69 5.21-14.19 35.75-57.73 39.92-67.03 4.17-9.31 9.8-14.99 13.38-14.63 0 0 43.49 4.06 57.01 10.75 1.88.93 3.18 1.91 3.71 2.93 4.33 8.41-43.23 86.48-48.54 92.76z"/><path fill="#3c7fbe" d="M623.663 573.696c-.22 3.28-2.46 8.08-5.14 7.73-3.17-.43-40.29-7.38-44.95-8.54-.13-.04-.24-.07-.32-.09-2.82-.84.31-7.24 4-9.3 0 0 45.39 5.55 46.26 8.37.15.5.2 1.13.15 1.83zM613.813 591.836c-.29 3.28-2.5 7.88-5.12 7.53-2.98-.4-36.06-6.59-43.81-8.28-.72-.16-1.22-.28-1.46-.35-2.83-.84.31-7.24 4-9.29 0 0 45.39 5.54 46.26 8.36.17.55.21 1.25.13 2.03z"/><path fill="#bd8aae" d="M603.533 608.356c-.03.25-.29.94-.72 1.96-3 7.13-14.52 30.35-17.79 33.01-3.21 2.61-12.42-.87-16.73-3.18-.71-.37-1.28-.72-1.68-1-2.83-2 16.5-33.4 16.5-33.4 3.91-3.47 20.67.6 20.42 2.61z"/><path fill="#cde9f9" d="M696.611 595.169s-13.187 3.9-19.789 2.923c-6.602-.977-6.679 18.57-5.376 20.036s17.739 2.932 21.901 0c0 0 4.577-16.79 3.264-22.959z"/><path fill="#aecfdc" d="M640.333 568.554s9.805-11.528 18.179-11.52c0 0-12.914-6.267-16.931-5.899s-13.599 11.445-13.599 11.445 11.374 3.476 12.351 5.974zM586.014 555.545s9.193-10.806 15.385-11.822c0 0-9.888-.089-14.311 0s-11.219 12.434-11.219 12.434 1.273-2.598 10.145-.612z"/><ellipse cx="511.123" cy="579.578" fill="#aecfdc" rx="10.751" ry="12.136"/><path fill="#aecfdc" d="M597.739 652.514s3.085 10.554 22.23 14.925l-4.284 8.03s-19.671.2-23.901-14.154l5.955-8.801z"/><linearGradient id="SVGID_20_" x1="450.642" x2="552.362" y1="584.069" y2="584.069" gradientUnits="userSpaceOnUse"><stop offset="0" stop-color="#2484c6" stop-opacity="0"/><stop offset=".964" stop-color="#aecfdc"/></linearGradient><path fill="url(#SVGID_20_)" d="M552.362 572.482c-.12.27-2.83 6.06-5.25 11.56-1.32 2.99-2.55 5.9-3.24 7.8-.42 1.15-1.16 2.38-2.08 3.59-2.78.12-20.27.8-26.89-1.01-5.03-1.38-30.58-1.74-45.49-1.83-6.42-.04-10.87-.03-10.87-.03s-6.4-4.72-7.9-12.32c7.25-.39 21.93-.84 41.46.34 28.03 1.69 59.58-7.9 60.26-8.1z"/><ellipse cx="664.138" cy="673.594" fill="#aecfdc" rx="10.751" ry="12.136"/><g opacity=".52"><linearGradient id="SVGID_21_" x1="644.22" x2="687.353" y1="665.435" y2="665.435" gradientUnits="userSpaceOnUse"><stop offset="0" stop-color="#bd8aae"/><stop offset="1" stop-color="#2484c6" stop-opacity="0"/></linearGradient><path fill="url(#SVGID_21_)" d="M687.353 735.717c-1.44.24-3 .43-4.67.54-9.77.62-16.61-1.98-16.61-1.98s-16.29-57.02-17.59-70.37c-1.31-13.36-2.61-31.66-2.61-31.66s-.27.28-.76.82c-.53.59.127-.168-.893.992 6.08-22.3 12.493-38.072 13.173-39.542-.44 1.06-3.93 10.09-4.01 29.81-.09 21.03 7.8 46.09 12.69 74.11 2.87 16.42 13.21 29.38 21.28 37.28z"/></g><linearGradient id="SVGID_22_" x1="645.778" x2="687.039" y1="514.742" y2="514.742" gradientUnits="userSpaceOnUse"><stop offset="0" stop-color="#21409a"/><stop offset=".998" stop-color="#bd8aae"/></linearGradient><path fill="url(#SVGID_22_)" d="M686.372 533.991c-.475 3.532-1.23 6.67-2.214 9.455-2.663 1.951-7.311 4.033-14.429 3.102-12.416-1.617-25.527-27.118-23.796-44.736 1.055-10.712 5.668-16.344 9.121-19.104 1.916.316 3.822.764 5.703 1.336 21.758 6.581 28.612 27.451 25.615 49.947z"/><path fill="#cde9f9" d="M646.662 543.984c-1.52 1.591-3.822 2.452-4.938 1.74-2.153-1.371-6.45-6.459-7.434-12.381-.738-4.429 1.388-8.981 4.868-10.202 1.169-.413 2.487-.448 3.902.026 0 0 1.362 11.019 4.332 15.246 1.431 2.021.676 4.104-.73 5.571z"/><linearGradient id="SVGID_23_" x1="634.143" x2="646.662" y1="534.559" y2="534.559" gradientUnits="userSpaceOnUse"><stop offset="0" stop-color="#cde9f9"/><stop offset=".558" stop-color="#e7f6fd"/></linearGradient><path fill="url(#SVGID_23_)" d="M646.662 543.984c-1.52 1.591-3.822 2.452-4.938 1.74-2.153-1.371-6.45-6.459-7.434-12.381-.738-4.429 1.388-8.981 4.868-10.202-.404 2.285-.554 5.035.026 7.953.984 4.885 4.842 9.911 7.478 12.89z"/><path fill="#306097" d="M623.663 573.696c-11.17-2.58-46.52-7.23-46.52-7.23-2.19 1.8-3.17 4.77-3.57 6.42-.13-.04-.24-.07-.32-.09-2.82-.84.31-7.24 4-9.3 0 0 45.39 5.55 46.26 8.37.15.5.2 1.13.15 1.83zM613.813 591.836c-9.78-3.2-45.9-7.7-45.9-7.7s-.22 1.12-1.58 2.96c-.86 1.16-1.27 2.87-1.45 3.99-.72-.16-1.22-.28-1.46-.35-2.83-.84.31-7.24 4-9.29 0 0 45.39 5.54 46.26 8.36.17.55.21 1.25.13 2.03z"/><path fill="#a17194" d="M603.533 608.356c-.03.25-.29.94-.72 1.96-11.36-4.44-18.39-1.83-18.39-1.83s-.76 1.63-4.13 7.72c-2.77 5-9.64 19.08-12 23.94-.71-.37-1.28-.72-1.68-1-2.83-2 16.5-33.4 16.5-33.4 3.91-3.47 20.67.6 20.42 2.61z"/><linearGradient id="SVGID_24_" x1="525.937" x2="641.264" y1="613.878" y2="613.878" gradientUnits="userSpaceOnUse"><stop offset="0" stop-color="#bd8aae"/><stop offset="1" stop-color="#2484c6" stop-opacity="0"/></linearGradient><path fill="url(#SVGID_24_)" d="M592.446 660.556c-5.32 6.28-34.42-1.76-44.63-4.8-9.79-2.92-24.78-5.55-21.39-18.29 3.83 2.17 10.48 4.77 21.98 7.38 28.42 6.44 34.5 9.08 40.15 2.55 4.72-5.46 38.02-60.83 48.72-82.53 1.88.93 3.18 1.91 3.71 2.93 4.33 8.41-43.23 86.48-48.54 92.76z"/><g opacity=".52"><linearGradient id="SVGID_25_" x1="568.906" x2="597.543" y1="739.014" y2="739.014" gradientUnits="userSpaceOnUse"><stop offset="0" stop-color="#bd8aae"/><stop offset="1" stop-color="#2484c6" stop-opacity="0"/></linearGradient><path fill="url(#SVGID_25_)" d="M597.543 713.637c-.81.38-1.72.96-2.66 1.83-3.09 2.86-9.93 17.83-18.25 36.2-3.4 7.5-4.46 11.79-4.52 14.24-2.2-1.34-3.76-3.85-3.02-7.53 1.39-6.94 11.11-31.28 19.24-43.88a5.173 5.173 0 0 1 6.04-2.09c1 .34 2.09.76 3.17 1.23z"/></g><g opacity=".52"><linearGradient id="SVGID_26_" x1="472.473" x2="533.643" y1="809.277" y2="809.277" gradientUnits="userSpaceOnUse"><stop offset="0" stop-color="#bd8aae"/><stop offset="1" stop-color="#2484c6" stop-opacity="0"/></linearGradient><path fill="url(#SVGID_26_)" d="M533.643 813.597c-3.74-1.77-10.14-4.13-17.92-4.23-11.37-.14-37.16-1.09-43.25-.91.79-1.7 1.96-3.4 3.5-3.49 3.09-.16 30.62 1.67 41.21 1.41 8.72-.22 15.94 4.4 16.46 7.22z"/></g><linearGradient id="SVGID_27_" x1="415.649" x2="472.967" y1="747.482" y2="747.482" gradientUnits="userSpaceOnUse"><stop offset="0" stop-color="#2484c6" stop-opacity="0"/><stop offset=".964" stop-color="#aecfdc"/></linearGradient><path fill="url(#SVGID_27_)" d="M472.843 744.997c-1.08-.42-2.93-1.06-4.04-.95-1.63.16-35.51 4.89-44.79 6.52-4.21.73-6.78 1.87-8.33 2.91-.13-1.68.06-3.75 1.59-4.22 2.66-.81 52.27-8.64 53.92-7.69 1.05.6 2.15 1.95 1.65 3.43z"/><linearGradient id="SVGID_28_" x1="454.583" x2="548.743" y1="735.747" y2="735.747" gradientUnits="userSpaceOnUse"><stop offset="0" stop-color="#2484c6" stop-opacity="0"/><stop offset=".964" stop-color="#aecfdc"/></linearGradient><path fill="url(#SVGID_28_)" d="M548.463 742.417c-1.96 17.92-22.53 41.54-22.53 41.54l-69.31 4.4-.04-4.4c.25-3.26-.71-5.46-2-6.94 3.07.35 6.98.45 12.28-.13 17.42-1.89 55.59-5.72 55.59-5.72s7.57-12.48 12.88-30.39c4.47-15.06 5.18-28.05 5.29-31.8.02-.71.02-1.09.02-1.09s-.29.22-.83.61c1.43-12.8 1.75-25.36 1.75-25.36s8.85 41.36 6.9 59.28z" opacity=".2"/><path fill="#758e9b" d="M547.112 584.042c-1.32 2.99-2.55 5.9-3.24 7.8-.42 1.15-1.16 2.38-2.08 3.59-2.78.12-20.27.8-26.89-1.01-5.03-1.38-30.58-1.74-45.49-1.83 5.04-1.44 13.51-2.83 26.67-2.18 18.61.92 41.03-3.91 51.03-6.37zM655.392 695.052c-3.38-13.08-6.38-25.71-6.91-31.14-1.31-13.36-2.61-31.66-2.61-31.66s-.27.28-.76.82c-.21.23-.45.5-.74.82 2.44-8.69 5.06-17.35 5.06-17.35s.75 5.55 1.22 30.31c.27 13.77 2.67 33.44 4.74 48.2zM540.642 707.892s-41.05 30.3-47.89 33.23c-1.71.73-7.3 1.89-14.95 3.22 30.95-13.46 52.81-36.01 63.48-48.86-.01 2.68 0 5.14-.01 7-.01 2 .46 3.27-.63 5.41z"/><linearGradient id="SVGID_29_" x1="553.442" x2="698.462" y1="638.106" y2="638.106" gradientUnits="userSpaceOnUse"><stop offset="0" stop-color="#bd8aae"/><stop offset="1" stop-color="#2484c6" stop-opacity="0"/></linearGradient><path fill="url(#SVGID_29_)" d="M698.462 732.102s-.45.27-1.31.66c-5.86-6.94-9.34-27.01-9.8-37.28-.62-13.93-8.5-34.94 0-68.5s7.14-42.68-7.52-54.5-38.25-21.35-76.3-24.67c-17.49-1.53-35.61.55-50.09 3.25l.73-.41c7.61-4.39 33.77-11.67 71.59-3.51 37.81 8.17 77.4 25.79 70.19 59.45-7.2 33.66-12.55 41.61-7.62 67.31 4.93 25.69 3.75 51.25 10.13 58.2z"/></g><g id="planet_1"><circle cx="859.773" cy="720.023" r="141.959" fill="#3c7fbe"/><linearGradient id="SVGID_30_" x1="891.521" x2="699.074" y1="857.015" y2="721.007" gradientUnits="userSpaceOnUse"><stop offset="0" stop-color="#21409a"/><stop offset=".998" stop-color="#29abe2" stop-opacity="0"/></linearGradient><path fill="url(#SVGID_30_)" d="M717.82 719.542c0 .161-.006.32-.006.481 0 10.096 1.062 19.944 3.066 29.444l125.126 111.849c4.531.436 9.122.667 13.767.667 24.146 0 46.88-6.036 66.788-16.67L717.82 719.542z"/><linearGradient id="SVGID_31_" x1="941.761" x2="749.313" y1="785.928" y2="649.92" gradientUnits="userSpaceOnUse"><stop offset="0" stop-color="#21409a"/><stop offset=".998" stop-color="#29abe2" stop-opacity="0"/></linearGradient><path fill="url(#SVGID_31_)" d="M765.143 614.215c-19.15 17.139-33.618 39.398-41.254 64.628l242.167 135.276a142.442 142.442 0 0 0 17.43-24.438L765.143 614.215z"/><linearGradient id="SVGID_32_" x1="987.543" x2="795.096" y1="721.148" y2="585.139" gradientUnits="userSpaceOnUse"><stop offset="0" stop-color="#21409a"/><stop offset=".998" stop-color="#29abe2" stop-opacity="0"/></linearGradient><path fill="url(#SVGID_32_)" d="m827.533 581.743 164.983 188.676c5.95-15.662 9.217-32.646 9.217-50.396 0-13.273-1.827-26.118-5.234-38.303L844.108 578.928a141.489 141.489 0 0 0-16.575 2.815z"/><linearGradient id="SVGID_33_" x1="824.901" x2="863.015" y1="632.497" y2="632.497" gradientUnits="userSpaceOnUse"><stop offset=".061" stop-color="#28a8e0"/><stop offset=".998" stop-color="#29abe2" stop-opacity="0"/></linearGradient><circle cx="843.958" cy="632.497" r="19.057" fill="url(#SVGID_33_)"/><linearGradient id="SVGID_34_" x1="806.687" x2="866.205" y1="746.778" y2="746.778" gradientUnits="userSpaceOnUse"><stop offset=".061" stop-color="#28a8e0"/><stop offset=".998" stop-color="#29abe2" stop-opacity="0"/></linearGradient><circle cx="836.446" cy="746.778" r="29.759" fill="url(#SVGID_34_)"/><linearGradient id="SVGID_35_" x1="916.751" x2="947.69" y1="700.37" y2="700.37" gradientUnits="userSpaceOnUse"><stop offset=".061" stop-color="#28a8e0"/><stop offset=".998" stop-color="#29abe2" stop-opacity="0"/></linearGradient><circle cx="932.22" cy="700.37" r="15.469" fill="url(#SVGID_35_)"/><linearGradient id="SVGID_36_" x1="717.814" x2="1001.732" y1="720.023" y2="720.023" gradientUnits="userSpaceOnUse"><stop offset=".061" stop-color="#28a8e0"/><stop offset=".998" stop-color="#29abe2" stop-opacity="0"/></linearGradient><path fill="url(#SVGID_36_)" d="M859.773 578.064c-78.402 0-141.959 63.557-141.959 141.959 0 1.04.017 2.075.039 3.109 1.655-73.528 61.773-132.626 135.698-132.626 74.966 0 135.738 60.772 135.738 135.738 0 73.925-59.098 134.044-132.626 135.698 1.034.022 2.07.039 3.109.039 78.402 0 141.959-63.557 141.959-141.959.002-78.401-63.556-141.958-141.958-141.958z"/><linearGradient id="SVGID_37_" x1="747.675" x2="778.614" y1="715.497" y2="715.497" gradientUnits="userSpaceOnUse"><stop offset=".061" stop-color="#28a8e0"/><stop offset=".998" stop-color="#29abe2" stop-opacity="0"/></linearGradient><circle cx="763.145" cy="715.497" r="15.469" fill="url(#SVGID_37_)"/><linearGradient id="SVGID_38_" x1="923.179" x2="941.262" y1="782.965" y2="782.965" gradientUnits="userSpaceOnUse"><stop offset=".061" stop-color="#28a8e0"/><stop offset=".998" stop-color="#29abe2" stop-opacity="0"/></linearGradient><circle cx="932.22" cy="782.965" r="9.042" fill="url(#SVGID_38_)"/><linearGradient id="SVGID_39_" x1="803.44" x2="821.524" y1="808.976" y2="808.976" gradientUnits="userSpaceOnUse"><stop offset=".061" stop-color="#28a8e0"/><stop offset=".998" stop-color="#29abe2" stop-opacity="0"/></linearGradient><path fill="url(#SVGID_39_)" d="M821.524 808.977c0 4.994-4.048 9.042-9.042 9.042s-9.042-4.048-9.042-9.042 4.048-9.042 9.042-9.042 9.042 4.048 9.042 9.042z"/></g><g id="planet_2"><linearGradient id="SVGID_40_" x1="772.726" x2="888.405" y1="428.016" y2="428.016" gradientTransform="rotate(-.81 121.715 5956.748)" gradientUnits="userSpaceOnUse"><stop offset="0" stop-color="#1592d1"/><stop offset="1" stop-color="#82cdbd"/></linearGradient><circle cx="755.27" cy="418.961" r="57.838" fill="url(#SVGID_40_)"/><linearGradient id="SVGID_41_" x1="772.726" x2="888.405" y1="428.016" y2="428.016" gradientTransform="rotate(-.81 121.715 5956.748)" gradientUnits="userSpaceOnUse"><stop offset="0" stop-color="#bd8aae"/><stop offset="1" stop-color="#2484c6" stop-opacity="0"/></linearGradient><circle cx="755.27" cy="418.961" r="57.838" fill="url(#SVGID_41_)"/><linearGradient id="SVGID_42_" x1="831.036" x2="820.699" y1="457.434" y2="469.081" gradientTransform="rotate(-.81 121.715 5956.748)" gradientUnits="userSpaceOnUse"><stop offset="0" stop-color="#1592d1"/><stop offset="1" stop-color="#40c4dc"/></linearGradient><circle cx="751.146" cy="454.152" r="7.764" fill="url(#SVGID_42_)"/><linearGradient id="SVGID_43_" x1="866.682" x2="850.54" y1="400.009" y2="418.196" gradientTransform="rotate(-.81 121.715 5956.748)" gradientUnits="userSpaceOnUse"><stop offset="0" stop-color="#1592d1"/><stop offset="1" stop-color="#40c4dc"/></linearGradient><circle cx="783.205" cy="399.496" r="12.124" fill="url(#SVGID_43_)"/><linearGradient id="SVGID_44_" x1="850.585" x2="842.195" y1="421.535" y2="430.989" gradientTransform="rotate(-.81 121.715 5956.748)" gradientUnits="userSpaceOnUse"><stop offset="0" stop-color="#1592d1"/><stop offset="1" stop-color="#40c4dc"/></linearGradient><path fill="url(#SVGID_44_)" d="M777.449 416.818a6.302 6.302 0 0 1-6.217 6.387 6.303 6.303 0 1 1 6.217-6.387z"/><linearGradient id="SVGID_45_" x1="801.71" x2="793.319" y1="403.34" y2="412.795" gradientTransform="rotate(-.81 121.715 5956.748)" gradientUnits="userSpaceOnUse"><stop offset="0" stop-color="#1592d1"/><stop offset="1" stop-color="#40c4dc"/></linearGradient><path fill="url(#SVGID_45_)" d="M728.332 399.288a6.303 6.303 0 1 1-12.604.17 6.303 6.303 0 0 1 12.604-.17z"/><linearGradient id="SVGID_46_" x1="861.167" x2="856.262" y1="450.812" y2="456.338" gradientTransform="rotate(-.81 121.715 5956.748)" gradientUnits="userSpaceOnUse"><stop offset="0" stop-color="#1592d1"/><stop offset="1" stop-color="#40c4dc"/></linearGradient><path fill="url(#SVGID_46_)" d="M787.491 444.033a3.684 3.684 0 1 1-7.367.1 3.684 3.684 0 0 1 7.367-.1z"/><linearGradient id="SVGID_47_" x1="826.364" x2="821.46" y1="397.185" y2="402.711" gradientTransform="rotate(-.81 121.715 5956.748)" gradientUnits="userSpaceOnUse"><stop offset="0" stop-color="#1592d1"/><stop offset="1" stop-color="#40c4dc"/></linearGradient><path fill="url(#SVGID_47_)" d="M751.966 390.884a3.684 3.684 0 1 1-7.367.1 3.684 3.684 0 0 1 7.367-.1z"/><linearGradient id="SVGID_48_" x1="697.432" x2="813.107" y1="418.961" y2="418.961" gradientUnits="userSpaceOnUse"><stop offset=".061" stop-color="#28a8e0"/><stop offset=".998" stop-color="#29abe2" stop-opacity="0"/></linearGradient><path fill="url(#SVGID_48_)" d="M754.489 361.129c-31.94.431-57.483 26.673-57.052 58.613.006.424.018.845.033 1.267.27-29.964 24.436-54.37 54.553-54.777 30.54-.412 55.632 24.011 56.044 54.552.407 30.116-23.338 54.933-53.284 56.011.421.003.843.005 1.267-.001 31.94-.431 57.483-26.673 57.052-58.613s-26.673-57.483-58.613-57.052z"/><defs><filter id="Adobe_OpacityMaskFilter" width="167.962" height="34.085" x="671.258" y="401.454" filterUnits="userSpaceOnUse"><feFlood flood-color="#fff" flood-opacity="1" result="back"/><feBlend in="SourceGraphic" in2="back"/></filter></defs><mask id="SVGID_49_" width="167.962" height="34.085" x="671.258" y="401.454" maskUnits="userSpaceOnUse"><g filter="url(#Adobe_OpacityMaskFilter)"><defs><filter id="Adobe_OpacityMaskFilter_1_" width="167.962" height="34.085" x="671.258" y="401.454" filterUnits="userSpaceOnUse"><feFlood flood-color="#fff" flood-opacity="1" result="back"/><feBlend in="SourceGraphic" in2="back"/></filter></defs><linearGradient id="SVGID_50_" x1="828.966" x2="831.654" y1="402.659" y2="441.441" gradientTransform="rotate(-.81 121.715 5956.748)" gradientUnits="userSpaceOnUse"><stop offset="0" stop-color="#666"/><stop offset="1" stop-color="#999"/></linearGradient><path fill="url(#SVGID_50_)" d="M810.406 401.454a56.936 56.936 0 0 1 1.193 4.351c.351.065.714.126 1.06.192 17.728 3.386 22.503 7.631 22.53 9.606s-4.632 6.347-22.263 10.21c-15.31 3.355-35.726 5.364-57.488 5.658-21.762.294-42.225-1.164-57.619-4.104-17.728-3.386-22.503-7.631-22.53-9.606-.027-1.975 4.632-6.347 22.263-10.21.344-.075.705-.147 1.054-.221a57.364 57.364 0 0 1 1.075-4.381c-16.987 3.387-28.51 8.397-28.423 14.867.167 12.356 42.502 18.25 84.235 17.686 41.733-.563 83.894-7.598 83.727-19.954-.088-6.47-11.742-11.167-28.814-14.094z" mask="url(#SVGID_49_)"/></g></mask><path fill="#fff" d="M810.406 401.454a56.936 56.936 0 0 1 1.193 4.351c.351.065.714.126 1.06.192 17.728 3.386 22.503 7.631 22.53 9.606s-4.632 6.347-22.263 10.21c-15.31 3.355-35.726 5.364-57.488 5.658-21.762.294-42.225-1.164-57.619-4.104-17.728-3.386-22.503-7.631-22.53-9.606-.027-1.975 4.632-6.347 22.263-10.21.344-.075.705-.147 1.054-.221a57.364 57.364 0 0 1 1.075-4.381c-16.987 3.387-28.51 8.397-28.423 14.867.167 12.356 42.502 18.25 84.235 17.686 41.733-.563 83.894-7.598 83.727-19.954-.088-6.47-11.742-11.167-28.814-14.094z"/></g><g id="planet_3"><circle cx="1038.734" cy="429.967" r="80.917" fill="#e7f6fd"/><linearGradient id="SVGID_51_" x1="1048.32" x2="1024.141" y1="399.164" y2="476.858" gradientUnits="userSpaceOnUse"><stop offset="0" stop-color="#bd8aae"/><stop offset="1" stop-color="#2484c6" stop-opacity="0"/></linearGradient><circle cx="1038.734" cy="429.967" r="80.917" fill="url(#SVGID_51_)"/><linearGradient id="SVGID_52_" x1="1032.221" x2="1050.274" y1="477.467" y2="394.938" gradientUnits="userSpaceOnUse"><stop offset="0" stop-color="#bd8aae"/><stop offset="1" stop-color="#2484c6" stop-opacity="0"/></linearGradient><path fill="url(#SVGID_52_)" d="M1119.651 429.967c0-11.68-2.479-22.779-6.932-32.807-31.99-.229-69.591 46.953-100.205 54.316-19.576 4.708-39.435.56-52.748-3.799 8.077 36.17 40.363 63.207 78.968 63.207 44.689 0 80.917-36.228 80.917-80.917z"/><linearGradient id="SVGID_53_" x1="1046.317" x2="1042.771" y1="476.084" y2="443.524" gradientUnits="userSpaceOnUse"><stop offset="0" stop-color="#bd8aae"/><stop offset="1" stop-color="#2484c6" stop-opacity="0"/></linearGradient><path fill="url(#SVGID_53_)" d="M1119.651 429.967a81.25 81.25 0 0 0-1.44-15.25c-32.946 6.192-70.16 46.742-100.911 53.523-18.302 4.036-36.827 1.563-50.892-1.97 13.305 26.458 40.692 44.614 72.326 44.614 44.689 0 80.917-36.228 80.917-80.917z"/><linearGradient id="SVGID_54_" x1="1045.715" x2="1058.966" y1="489.442" y2="428.866" gradientUnits="userSpaceOnUse"><stop offset="0" stop-color="#bd8aae"/><stop offset="1" stop-color="#2484c6" stop-opacity="0"/></linearGradient><path fill="url(#SVGID_54_)" d="M1038.734 510.884c43.429 0 78.863-34.214 80.827-77.158-33.276 5.31-71.089 46.88-102.261 53.753-11.741 2.589-23.574 2.497-34.264 1.167 14.506 13.779 34.111 22.238 55.698 22.238z"/><linearGradient id="SVGID_55_" x1="1066.754" x2="1064.175" y1="501.655" y2="474.253" gradientUnits="userSpaceOnUse"><stop offset="0" stop-color="#bd8aae"/><stop offset="1" stop-color="#2484c6" stop-opacity="0"/></linearGradient><path fill="url(#SVGID_55_)" d="M1116.404 452.707c-32.494 7.288-68.913 46.491-99.104 53.148a84.37 84.37 0 0 1-4.329.832 80.767 80.767 0 0 0 25.763 4.197c36.793 0 67.844-24.559 77.67-58.177z"/><linearGradient id="SVGID_56_" x1="957.817" x2="1119.651" y1="429.967" y2="429.967" gradientUnits="userSpaceOnUse"><stop offset="0" stop-color="#64cdf6"/><stop offset="1" stop-color="#fff" stop-opacity="0"/></linearGradient><path fill="url(#SVGID_56_)" d="M1038.734 349.05c-44.689 0-80.917 36.228-80.917 80.917 0 .593.01 1.183.022 1.772.943-41.911 35.211-75.597 77.349-75.597 42.731 0 77.371 34.64 77.371 77.371 0 42.138-33.686 76.405-75.597 77.349.59.013 1.18.022 1.772.022 44.689 0 80.917-36.228 80.917-80.917s-36.228-80.917-80.917-80.917z"/></g><g id="stars"><linearGradient id="SVGID_57_" x1="803.707" x2="825.536" y1="401.458" y2="401.458" gradientUnits="userSpaceOnUse"><stop offset="0" stop-color="#cde8f9"/><stop offset="1" stop-color="#fff" stop-opacity="0"/></linearGradient><path fill="url(#SVGID_57_)" d="m816.413 399.058-2.157-9.174-2.158 9.174-8.391 2.157 8.391 2.158 2.158 9.658 2.157-9.658 9.123-2.158z"/><linearGradient id="SVGID_58_" x1="937.938" x2="959.766" y1="491.082" y2="491.082" gradientUnits="userSpaceOnUse"><stop offset="0" stop-color="#cde8f9"/><stop offset="1" stop-color="#fff" stop-opacity="0"/></linearGradient><path fill="url(#SVGID_58_)" d="m950.643 488.682-2.157-9.174-2.158 9.174-8.39 2.157 8.39 2.158 2.158 9.659 2.157-9.659 9.123-2.158z"/><linearGradient id="SVGID_59_" x1="700.982" x2="722.811" y1="479.508" y2="479.508" gradientUnits="userSpaceOnUse"><stop offset="0" stop-color="#cde8f9"/><stop offset="1" stop-color="#fff" stop-opacity="0"/></linearGradient><path fill="url(#SVGID_59_)" d="m713.688 477.108-2.158-9.173-2.157 9.173-8.391 2.158 8.391 2.157 2.157 9.659 2.158-9.659 9.123-2.157z"/><linearGradient id="SVGID_60_" x1="1040.384" x2="1062.213" y1="703.893" y2="703.893" gradientUnits="userSpaceOnUse"><stop offset="0" stop-color="#cde8f9"/><stop offset="1" stop-color="#fff" stop-opacity="0"/></linearGradient><path fill="url(#SVGID_60_)" d="m1053.09 701.493-2.158-9.173-2.157 9.173-8.391 2.158 8.391 2.157 2.157 9.659 2.158-9.659 9.123-2.157z"/><linearGradient id="SVGID_61_" x1="1164.34" x2="1186.168" y1="532.103" y2="532.103" gradientUnits="userSpaceOnUse"><stop offset="0" stop-color="#cde8f9"/><stop offset="1" stop-color="#fff" stop-opacity="0"/></linearGradient><path fill="url(#SVGID_61_)" d="m1177.045 529.703-2.157-9.173-2.158 9.173-8.391 2.158 8.391 2.157 2.158 9.659 2.157-9.659 9.123-2.157z"/><linearGradient id="SVGID_62_" x1="471.253" x2="493.081" y1="619.821" y2="619.821" gradientUnits="userSpaceOnUse"><stop offset="0" stop-color="#cde8f9"/><stop offset="1" stop-color="#fff" stop-opacity="0"/></linearGradient><path fill="url(#SVGID_62_)" d="m483.958 617.421-2.157-9.173-2.158 9.173-8.39 2.158 8.39 2.157 2.158 9.659 2.157-9.659 9.123-2.157z"/><linearGradient id="SVGID_63_" x1="724.033" x2="745.861" y1="622.27" y2="622.27" gradientUnits="userSpaceOnUse"><stop offset="0" stop-color="#cde8f9"/><stop offset="1" stop-color="#fff" stop-opacity="0"/></linearGradient><path fill="url(#SVGID_63_)" d="m736.738 619.869-2.157-9.173-2.158 9.173-8.39 2.158 8.39 2.158 2.158 9.658 2.157-9.658 9.123-2.158z"/><linearGradient id="SVGID_64_" x1="829.409" x2="851.238" y1="518.746" y2="518.746" gradientUnits="userSpaceOnUse"><stop offset="0" stop-color="#cde8f9"/><stop offset="1" stop-color="#fff" stop-opacity="0"/></linearGradient><path fill="url(#SVGID_64_)" d="m842.115 516.346-2.157-9.174-2.158 9.174-8.391 2.157 8.391 2.158 2.158 9.659 2.157-9.659 9.123-2.158z"/><linearGradient id="SVGID_65_" x1="1014.064" x2="1035.893" y1="584.064" y2="584.064" gradientUnits="userSpaceOnUse"><stop offset="0" stop-color="#cde8f9"/><stop offset="1" stop-color="#fff" stop-opacity="0"/></linearGradient><path fill="url(#SVGID_65_)" d="m1026.77 581.664-2.157-9.173-2.158 9.173-8.39 2.158 8.39 2.157 2.158 9.659 2.157-9.659 9.123-2.157z"/></g><g id="comets"><defs><filter id="Adobe_OpacityMaskFilter_2_" width="112.03" height="70.061" x="805.017" y="432.904" filterUnits="userSpaceOnUse"><feFlood flood-color="#fff" flood-opacity="1" result="back"/><feBlend in="SourceGraphic" in2="back"/></filter></defs><mask id="SVGID_66_" width="112.03" height="70.061" x="805.017" y="432.904" maskUnits="userSpaceOnUse"><g filter="url(#Adobe_OpacityMaskFilter_2_)"><defs><filter id="Adobe_OpacityMaskFilter_3_" width="112.03" height="70.061" x="805.017" y="432.904" filterUnits="userSpaceOnUse"><feFlood flood-color="#fff" flood-opacity="1" result="back"/><feBlend in="SourceGraphic" in2="back"/></filter></defs><linearGradient id="SVGID_67_" x1="858.693" x2="971.689" y1="694.139" y2="694.139" gradientTransform="rotate(60.192 1083.267 534.36)" gradientUnits="userSpaceOnUse"><stop offset="0"/><stop offset=".087" stop-color="#070707"/><stop offset=".217" stop-color="#1c1c1c"/><stop offset=".375" stop-color="#3e3e3e"/><stop offset=".554" stop-color="#6d6d6d"/><stop offset=".752" stop-color="#a9a9a9"/><stop offset=".962" stop-color="#f1f1f1"/><stop offset="1" stop-color="#fff"/></linearGradient><path fill="url(#SVGID_67_)" d="M916.384 500.618a4.773 4.773 0 0 0-1.683-6.537l-102.483-60.513a4.773 4.773 0 0 0-4.854 8.22l102.483 60.513a4.773 4.773 0 0 0 6.537-1.683z" mask="url(#SVGID_66_)"/></g></mask><path fill="#e7f6fd" d="M916.384 500.618a4.773 4.773 0 0 0-1.683-6.537l-102.483-60.513a4.773 4.773 0 0 0-4.854 8.22l102.483 60.513a4.773 4.773 0 0 0 6.537-1.683z"/><path fill="#cde9f9" d="M915.553 500.128a4.227 4.227 0 1 1-7.28-4.299 4.227 4.227 0 0 1 7.28 4.299z"/><defs><filter id="Adobe_OpacityMaskFilter_4_" width="112.03" height="70.061" x="828.5" y="543.147" filterUnits="userSpaceOnUse"><feFlood flood-color="#fff" flood-opacity="1" result="back"/><feBlend in="SourceGraphic" in2="back"/></filter></defs><mask id="SVGID_68_" width="112.03" height="70.061" x="828.5" y="543.147" maskUnits="userSpaceOnUse"><g filter="url(#Adobe_OpacityMaskFilter_4_)"><defs><filter id="Adobe_OpacityMaskFilter_5_" width="112.03" height="70.061" x="828.5" y="543.147" filterUnits="userSpaceOnUse"><feFlood flood-color="#fff" flood-opacity="1" result="back"/><feBlend in="SourceGraphic" in2="back"/></filter></defs><linearGradient id="SVGID_69_" x1="966.025" x2="1079.021" y1="728.559" y2="728.559" gradientTransform="rotate(60.192 1083.267 534.36)" gradientUnits="userSpaceOnUse"><stop offset="0"/><stop offset=".087" stop-color="#070707"/><stop offset=".217" stop-color="#1c1c1c"/><stop offset=".375" stop-color="#3e3e3e"/><stop offset=".554" stop-color="#6d6d6d"/><stop offset=".752" stop-color="#a9a9a9"/><stop offset=".962" stop-color="#f1f1f1"/><stop offset="1" stop-color="#fff"/></linearGradient><path fill="url(#SVGID_69_)" d="M939.867 610.86a4.773 4.773 0 0 0-1.683-6.537L835.701 543.81a4.773 4.773 0 0 0-4.854 8.22l102.483 60.513a4.773 4.773 0 0 0 6.537-1.683z" mask="url(#SVGID_68_)"/></g></mask><path fill="#e7f6fd" d="M939.867 610.86a4.773 4.773 0 0 0-1.683-6.537L835.701 543.81a4.773 4.773 0 0 0-4.854 8.22l102.483 60.513a4.773 4.773 0 0 0 6.537-1.683z"/><path fill="#cde9f9" d="M939.036 610.37a4.227 4.227 0 1 1-7.28-4.299 4.227 4.227 0 0 1 7.28 4.299z"/><defs><filter id="Adobe_OpacityMaskFilter_6_" width="112.03" height="70.061" x="1063.546" y="518.458" filterUnits="userSpaceOnUse"><feFlood flood-color="#fff" flood-opacity="1" result="back"/><feBlend in="SourceGraphic" in2="back"/></filter></defs><mask id="SVGID_70_" width="112.03" height="70.061" x="1063.546" y="518.458" maskUnits="userSpaceOnUse"><g filter="url(#Adobe_OpacityMaskFilter_6_)"><defs><filter id="Adobe_OpacityMaskFilter_7_" width="112.03" height="70.061" x="1063.546" y="518.458" filterUnits="userSpaceOnUse"><feFlood flood-color="#fff" flood-opacity="1" result="back"/><feBlend in="SourceGraphic" in2="back"/></filter></defs><linearGradient id="SVGID_71_" x1="1061.435" x2="1174.431" y1="512.335" y2="512.335" gradientTransform="rotate(60.192 1083.267 534.36)" gradientUnits="userSpaceOnUse"><stop offset="0"/><stop offset=".087" stop-color="#070707"/><stop offset=".217" stop-color="#1c1c1c"/><stop offset=".375" stop-color="#3e3e3e"/><stop offset=".554" stop-color="#6d6d6d"/><stop offset=".752" stop-color="#a9a9a9"/><stop offset=".962" stop-color="#f1f1f1"/><stop offset="1" stop-color="#fff"/></linearGradient><path fill="url(#SVGID_71_)" d="M1174.913 586.172a4.773 4.773 0 0 0-1.683-6.537l-102.483-60.513a4.773 4.773 0 0 0-4.854 8.22l102.483 60.513a4.773 4.773 0 0 0 6.537-1.683z" mask="url(#SVGID_70_)"/></g></mask><path fill="#e7f6fd" d="M1174.913 586.172a4.773 4.773 0 0 0-1.683-6.537l-102.483-60.513a4.773 4.773 0 0 0-4.854 8.22l102.483 60.513a4.773 4.773 0 0 0 6.537-1.683z"/><path fill="#cde9f9" d="M1174.082 585.682a4.227 4.227 0 1 1-7.28-4.299 4.227 4.227 0 0 1 7.28 4.299z"/><defs><filter id="Adobe_OpacityMaskFilter_8_" width="112.03" height="70.061" x="631.337" y="394.937" filterUnits="userSpaceOnUse"><feFlood flood-color="#fff" flood-opacity="1" result="back"/><feBlend in="SourceGraphic" in2="back"/></filter></defs><mask id="SVGID_72_" width="112.03" height="70.061" x="631.337" y="394.937" maskUnits="userSpaceOnUse"><g filter="url(#Adobe_OpacityMaskFilter_8_)"><defs><filter id="Adobe_OpacityMaskFilter_9_" width="112.03" height="70.061" x="631.337" y="394.937" filterUnits="userSpaceOnUse"><feFlood flood-color="#fff" flood-opacity="1" result="back"/><feBlend in="SourceGraphic" in2="back"/></filter></defs><linearGradient id="SVGID_73_" x1="739.419" x2="852.415" y1="825.971" y2="825.971" gradientTransform="rotate(60.192 1083.267 534.36)" gradientUnits="userSpaceOnUse"><stop offset="0"/><stop offset=".087" stop-color="#070707"/><stop offset=".217" stop-color="#1c1c1c"/><stop offset=".375" stop-color="#3e3e3e"/><stop offset=".554" stop-color="#6d6d6d"/><stop offset=".752" stop-color="#a9a9a9"/><stop offset=".962" stop-color="#f1f1f1"/><stop offset="1" stop-color="#fff"/></linearGradient><path fill="url(#SVGID_73_)" d="M742.704 462.65a4.773 4.773 0 0 0-1.683-6.537L638.538 395.6a4.773 4.773 0 0 0-4.854 8.22l102.483 60.513a4.772 4.772 0 0 0 6.537-1.683z" mask="url(#SVGID_72_)"/></g></mask><path fill="#e7f6fd" d="M742.704 462.65a4.773 4.773 0 0 0-1.683-6.537L638.538 395.6a4.773 4.773 0 0 0-4.854 8.22l102.483 60.513a4.772 4.772 0 0 0 6.537-1.683z"/><path fill="#cde9f9" d="M741.873 462.16a4.227 4.227 0 1 1-7.28-4.299 4.227 4.227 0 0 1 7.28 4.299z"/><defs><filter id="Adobe_OpacityMaskFilter_10_" width="112.03" height="70.061" x="919.887" y="528.72" filterUnits="userSpaceOnUse"><feFlood flood-color="#fff" flood-opacity="1" result="back"/><feBlend in="SourceGraphic" in2="back"/></filter></defs><mask id="SVGID_74_" width="112.03" height="70.061" x="919.887" y="528.72" maskUnits="userSpaceOnUse"><g filter="url(#Adobe_OpacityMaskFilter_10_)"><defs><filter id="Adobe_OpacityMaskFilter_11_" width="112.03" height="70.061" x="919.887" y="528.72" filterUnits="userSpaceOnUse"><feFlood flood-color="#fff" flood-opacity="1" result="back"/><feBlend in="SourceGraphic" in2="back"/></filter></defs><linearGradient id="SVGID_75_" x1="998.932" x2="1111.928" y1="642.091" y2="642.091" gradientTransform="rotate(60.192 1083.267 534.36)" gradientUnits="userSpaceOnUse"><stop offset="0"/><stop offset=".087" stop-color="#070707"/><stop offset=".217" stop-color="#1c1c1c"/><stop offset=".375" stop-color="#3e3e3e"/><stop offset=".554" stop-color="#6d6d6d"/><stop offset=".752" stop-color="#a9a9a9"/><stop offset=".962" stop-color="#f1f1f1"/><stop offset="1" stop-color="#fff"/></linearGradient><path fill="url(#SVGID_75_)" d="M1031.254 596.434a4.773 4.773 0 0 0-1.683-6.537l-102.483-60.513a4.773 4.773 0 0 0-4.854 8.22l102.483 60.513a4.774 4.774 0 0 0 6.537-1.683z" mask="url(#SVGID_74_)"/></g></mask><path fill="#e7f6fd" d="M1031.254 596.434a4.773 4.773 0 0 0-1.683-6.537l-102.483-60.513a4.773 4.773 0 0 0-4.854 8.22l102.483 60.513a4.774 4.774 0 0 0 6.537-1.683z"/><path fill="#cde9f9" d="M1030.423 595.943a4.227 4.227 0 1 1-7.28-4.299 4.227 4.227 0 0 1 7.28 4.299z"/></g><g id="planet_4"><circle cx="1126.973" cy="610.696" r="32.13" fill="#e7f6fd" transform="rotate(-17.918 1127.166 610.695)"/><linearGradient id="SVGID_76_" x1="1082.945" x2="1172.572" y1="714.441" y2="714.441" gradientTransform="rotate(-12.39 1420.92 -904.846) scale(.717)" gradientUnits="userSpaceOnUse"><stop offset=".061" stop-color="#28a8e0"/><stop offset=".998" stop-color="#29abe2" stop-opacity="0"/></linearGradient><circle cx="1126.973" cy="610.696" r="32.13" fill="url(#SVGID_76_)"/><linearGradient id="SVGID_77_" x1="1134.225" x2="1126.216" y1="696.813" y2="705.837" gradientTransform="rotate(-12.39 1420.92 -904.846) scale(.717)" gradientUnits="userSpaceOnUse"><stop offset="0" stop-color="#21409a"/><stop offset=".998" stop-color="#29abe2" stop-opacity="0"/></linearGradient><path fill="url(#SVGID_77_)" d="M1130.932 600.136a4.314 4.314 0 1 1-8.427 1.852 4.314 4.314 0 0 1 8.427-1.852z"/><linearGradient id="SVGID_78_" x1="1109.549" x2="1097.043" y1="690.482" y2="704.573" gradientTransform="rotate(-12.39 1420.92 -904.846) scale(.717)" gradientUnits="userSpaceOnUse"><stop offset="0" stop-color="#21409a"/><stop offset=".998" stop-color="#29abe2" stop-opacity="0"/></linearGradient><path fill="url(#SVGID_78_)" d="M1113.881 601.059a6.736 6.736 0 1 1-13.158 2.89 6.736 6.736 0 0 1 13.158-2.89z"/><linearGradient id="SVGID_79_" x1="1127.471" x2="1120.97" y1="727.755" y2="735.08" gradientTransform="rotate(-12.39 1420.92 -904.846) scale(.717)" gradientUnits="userSpaceOnUse"><stop offset="0" stop-color="#21409a"/><stop offset=".998" stop-color="#29abe2" stop-opacity="0"/></linearGradient><path fill="url(#SVGID_79_)" d="M1130.559 622.319a3.501 3.501 0 1 1-6.84 1.503 3.501 3.501 0 0 1 6.84-1.503z"/><linearGradient id="SVGID_80_" x1="1097.21" x2="1090.709" y1="717.226" y2="724.551" gradientTransform="rotate(-12.39 1420.92 -904.846) scale(.717)" gradientUnits="userSpaceOnUse"><stop offset="0" stop-color="#21409a"/><stop offset=".998" stop-color="#29abe2" stop-opacity="0"/></linearGradient><path fill="url(#SVGID_80_)" d="M1107.749 619.602a3.501 3.501 0 1 1-6.84 1.503 3.501 3.501 0 0 1 6.84-1.503z"/><linearGradient id="SVGID_81_" x1="1151.47" x2="1147.67" y1="732.101" y2="736.383" gradientTransform="rotate(-12.39 1420.92 -904.846) scale(.717)" gradientUnits="userSpaceOnUse"><stop offset="0" stop-color="#21409a"/><stop offset=".998" stop-color="#29abe2" stop-opacity="0"/></linearGradient><path fill="url(#SVGID_81_)" d="M1147.311 620.733a2.047 2.047 0 1 1-3.998.878 2.047 2.047 0 0 1 3.998-.878z"/><linearGradient id="SVGID_82_" x1="1116.523" x2="1112.723" y1="683.046" y2="687.327" gradientTransform="rotate(-12.39 1420.92 -904.846) scale(.717)" gradientUnits="userSpaceOnUse"><stop offset="0" stop-color="#21409a"/><stop offset=".998" stop-color="#29abe2" stop-opacity="0"/></linearGradient><path fill="url(#SVGID_82_)" d="M1115.292 591.758a2.047 2.047 0 1 1-3.998.878 2.047 2.047 0 0 1 3.998-.878z"/><linearGradient id="SVGID_83_" x1="1116.525" x2="1112.726" y1="746.022" y2="750.304" gradientTransform="rotate(-12.39 1420.92 -904.846) scale(.717)" gradientUnits="userSpaceOnUse"><stop offset="0" stop-color="#21409a"/><stop offset=".998" stop-color="#29abe2" stop-opacity="0"/></linearGradient><path fill="url(#SVGID_83_)" d="M1124.983 635.858a2.047 2.047 0 1 1-4 .877 2.047 2.047 0 0 1 4-.877z"/><linearGradient id="SVGID_84_" x1="1154.323" x2="1150.523" y1="695.293" y2="699.574" gradientTransform="rotate(-12.39 1420.92 -904.846) scale(.717)" gradientUnits="userSpaceOnUse"><stop offset="0" stop-color="#21409a"/><stop offset=".998" stop-color="#29abe2" stop-opacity="0"/></linearGradient><path fill="url(#SVGID_84_)" d="M1143.646 594.518a2.047 2.047 0 1 1-3.998.878 2.047 2.047 0 0 1 3.998-.878z"/><linearGradient id="SVGID_85_" x1="1094.836" x2="1159.11" y1="610.389" y2="610.389" gradientUnits="userSpaceOnUse"><stop offset=".061" stop-color="#28a8e0"/><stop offset=".998" stop-color="#29abe2" stop-opacity="0"/></linearGradient><path fill="url(#SVGID_85_)" d="M1120.077 579.315c-17.332 3.809-28.294 20.946-24.485 38.277.051.23.105.458.16.685-3.206-16.334 7.213-32.319 23.555-35.91 16.572-3.642 32.958 6.84 36.6 23.412 3.591 16.342-6.552 32.502-22.726 36.44.23-.045.459-.092.689-.142 17.332-3.809 28.294-20.946 24.485-38.278-3.809-17.331-20.946-28.293-38.278-24.484z"/><linearGradient id="SVGID_86_" x1="831.351" x2="960.594" y1="361.625" y2="361.625" gradientUnits="userSpaceOnUse"><stop offset=".257" stop-color="#3c7fbe"/><stop offset=".697" stop-color="#28a8e0"/><stop offset=".949" stop-color="#29abe2" stop-opacity="0"/></linearGradient><path fill="url(#SVGID_86_)" d="m842.224 283.276 109.739 63.363a17.264 17.264 0 0 1 8.631 14.95v71.047c0 6.434-6.999 10.426-12.537 7.15l-108.85-64.384a16.004 16.004 0 0 1-7.856-13.775v-72.076c0-5.578 6.04-9.065 10.873-6.275z"/><path fill="#e7f6fd" d="m831.228 286.023 109.739 63.363a17.264 17.264 0 0 1 8.631 14.95v71.047c0 6.434-6.999 10.426-12.537 7.15l-108.85-64.384a16.004 16.004 0 0 1-7.856-13.775V292.3c0-5.58 6.041-9.067 10.873-6.277z"/><linearGradient id="SVGID_87_" x1="820.855" x2="949.099" y1="364.373" y2="364.373" gradientUnits="userSpaceOnUse"><stop offset="0" stop-color="#bd8aae"/><stop offset="1" stop-color="#2484c6" stop-opacity="0"/></linearGradient><path fill="url(#SVGID_87_)" d="M941.277 443.204a7.685 7.685 0 0 1-3.96-1.1L828.466 377.72a15.568 15.568 0 0 1-7.611-13.344V292.3a6.767 6.767 0 0 1 6.76-6.759c1.181 0 2.312.308 3.363.915l109.739 63.363a16.81 16.81 0 0 1 8.382 14.517v71.047c0 4.313-3.509 7.821-7.822 7.821z"/><path fill="#fff" d="M827.616 286.041c1.091 0 2.138.285 3.113.848l109.739 63.363a16.31 16.31 0 0 1 8.131 14.084v71.047c0 3.52-2.799 7.32-7.322 7.32a7.193 7.193 0 0 1-3.706-1.031l-108.85-64.384a15.068 15.068 0 0 1-7.366-12.914V292.3c0-3.866 3.25-6.259 6.261-6.259m-.001-1c-3.786 0-7.26 3.028-7.26 7.259v72.076a16.004 16.004 0 0 0 7.856 13.775l108.85 64.384a8.232 8.232 0 0 0 4.215 1.17c4.336 0 8.322-3.465 8.322-8.32v-71.047c0-6.167-3.29-11.866-8.631-14.95l-109.739-63.363a7.164 7.164 0 0 0-3.613-.984z"/><linearGradient id="SVGID_88_" x1="826.188" x2="867.272" y1="340.689" y2="340.689" gradientUnits="userSpaceOnUse"><stop offset="0" stop-color="#1592d1"/><stop offset="1" stop-color="#40c4dc"/></linearGradient><path fill="url(#SVGID_88_)" d="m847.701 309.225-3.124 7.274c.492.459.985.941 1.471 1.445 10.379 10.693 15.447 27.119 11.329 36.702-.152.342-.311.673-.482.997-.059.117-.125.229-.191.342-3.003 5.284-8.753 6.575-15.129 4.018a23.24 23.24 0 0 1-3.03-1.482 25.356 25.356 0 0 1-.819-.492c-.498-.31-.878-.568-1.252-.821l-.17-.121a33.63 33.63 0 0 1-2.451-1.905l-.308-.268a50.847 50.847 0 0 1-1.238-1.129c-.393-.37-.786-.756-1.172-1.153a48.173 48.173 0 0 1-1.82-1.994l-3.127 7.28a61.913 61.913 0 0 0 1.82 1.972c.557.57 1.113 1.118 1.676 1.647a55.308 55.308 0 0 0 1.768 1.609c.144.129.288.257.432.378a47.259 47.259 0 0 0 3.486 2.707c.092.068.183.128.275.189.531.375 1.062.719 1.586 1.052l.183.113a36.88 36.88 0 0 0 3.646 2c.642.304 1.246.561 1.849.804 9.728 3.858 18.436 1.423 22.33-7.64 5.844-13.59-1.353-36.904-16.067-52.07a55.75 55.75 0 0 0-1.471-1.454z"/><path fill="#e7f6fd" d="m894.832 343.203-.009 3.301c-.005 1.946-2.114 3.156-3.796 2.18l-15.568-9.032a2.526 2.526 0 0 1-1.259-2.193l.009-3.301c.005-1.946 2.114-3.156 3.796-2.179l15.567 9.031a2.527 2.527 0 0 1 1.26 2.193zM944.077 388.039l-.009 3.308c-.006 1.942-2.109 3.153-3.792 2.181l-64.859-37.446a2.53 2.53 0 0 1-1.265-2.196l.01-3.307c.005-1.943 2.109-3.153 3.792-2.182l64.86 37.446a2.526 2.526 0 0 1 1.263 2.196z"/><path fill="#e7f6fd" d="m917.243 405.464-.009 3.307c-.006 1.943-2.109 3.154-3.792 2.182l-38.12-22.008a2.527 2.527 0 0 1-1.263-2.196l.009-3.308c.005-1.943 2.109-3.153 3.792-2.182l38.119 22.008a2.526 2.526 0 0 1 1.264 2.197z" opacity=".53"/><path fill="#e7f6fd" d="m933.973 398.663-.009 3.308c-.005 1.943-2.109 3.154-3.792 2.182l-54.802-31.64a2.53 2.53 0 0 1-1.264-2.196l.009-3.308c.005-1.943 2.11-3.153 3.792-2.182l54.803 31.64a2.53 2.53 0 0 1 1.263 2.196z"/></g><g id="oxygen"><linearGradient id="SVGID_89_" x1="1011.373" x2="1022.391" y1="799.633" y2="799.633" gradientTransform="matrix(-1 0 0 1 1657.077 0)" gradientUnits="userSpaceOnUse"><stop offset="0" stop-color="#6b385f"/><stop offset=".42" stop-color="#6f3b62" stop-opacity=".732"/><stop offset=".522" stop-color="#764268" stop-opacity=".604"/><stop offset=".694" stop-color="#8c567a" stop-opacity=".387"/><stop offset=".913" stop-color="#b5799b" stop-opacity=".11"/><stop offset="1" stop-color="#cc8dae" stop-opacity="0"/></linearGradient><path fill="#2a2f6d" d="M597.677 909.561c-18.513-10.69-18.513-28.241 0-39.003s48.808-10.762 67.322 0c18.513 10.762 18.513 28.313 0 39.003s-48.809 10.689-67.322 0z"/><path fill="#2a2f6d" d="M600.787 894.175c-17.746-9.271-17.746-24.494 0-33.828 17.746-9.334 46.784-9.334 64.53 0s17.746 24.557 0 33.828c-17.746 9.271-46.785 9.271-64.53 0z"/><path fill="#2a2f6d" d="M677.987 878.684h.689v15.717h-.689zM642.089 856.833v.001z"/><path fill="#2a2f6d" d="m678.669 876.521-6.836-10.731-7.362-4.931c-6.344-2.703-14.133-4.025-22.382-4.025v.693c1.315 0 2.613.036 3.89.104-4.959-.087-10.723.233-17.286 1.009a82.626 82.626 0 0 1 13.392-1.113l.003-.693h-.003c-13.49.001-28.199 3.53-39.771 10.304-.82.48-1.603.973-2.367 1.471l-15.251 1.832v20.682l.039.014c.262 5.617 3.61 10.831 10.233 14.708 6.904 4.042 16.286 6.004 26.346 6.004 13.49 0 28.199-3.53 39.771-10.304 11.613-6.799 17.63-15.443 17.588-23.363.063-1.055-.004-1.661-.004-1.661zm-66.971 33.978a57.006 57.006 0 0 1-6.064-1.181c2.081.49 4.101.876 6.064 1.181zm-6.294-1.237-.237-.062c.081.02.156.042.237.062z"/><linearGradient id="SVGID_90_" x1="585.172" x2="678.175" y1="807.102" y2="807.102" gradientUnits="userSpaceOnUse"><stop offset=".061" stop-color="#28a8e0"/><stop offset=".998" stop-color="#29abe2" stop-opacity="0"/></linearGradient><path fill="url(#SVGID_90_)" d="M629.587 897.883c-2.449 0-5.08-.054-8.279-.17-11.629-.422-17.245-1.856-26.125-6.674-6.374-3.458-9.917-8.73-9.979-14.845h-.031V749.871l.03-.001c-.053-10.396 8.895-21.263 17.341-26.211 11.554-6.77 26.457-7.337 39.519-7.338 11.724 0 21.38 4.631 26.093 7.392 2.708 1.586 4.897 3.423 6.53 5.458l-.544.42c.487.656.919 1.274 1.32 1.892l.582-.362c1.029 1.727 1.693 3.57 1.971 5.506l.027.185-.007.021.014.115c.096.787.128 1.582.098 2.362l-.005.128.036.071v135.017l-.028-.001c-.185 7.641-5.673 13.36-17.271 18.001-9.389 3.754-18.747 5.357-31.292 5.357z"/><path fill="#fff" d="M642.064 716.821c11.605 0 21.17 4.588 25.839 7.323 2.647 1.551 4.787 3.342 6.381 5.325l-.543.42c.482.649.908 1.259 1.302 1.866l.58-.361c.99 1.666 1.629 3.442 1.896 5.304l.009.065-.005.015.028.229c.092.762.124 1.53.095 2.284l-.01.267.041.077v134.001h-.03l.002.875c-.179 7.416-5.567 12.992-16.957 17.55-9.323 3.73-18.622 5.322-31.096 5.322-2.445 0-5.072-.054-8.267-.17-11.538-.418-17.107-1.839-25.905-6.614-6.207-3.368-9.658-8.485-9.718-14.41h-.031V749.868h.03c-.02-3.926 1.539-8.743 4.277-13.217a37.015 37.015 0 0 1 12.817-12.561c11.447-6.706 26.271-7.268 39.266-7.269h-.001m0-1h-.002c-13.49.001-28.199.627-39.771 7.406-11.612 6.803-17.629 18.721-17.588 26.646l-.03-3.265v132.036l.031-2.445c.059 5.834 3.271 11.497 10.241 15.279 9.036 4.903 14.874 6.319 26.346 6.734 2.859.104 5.618.17 8.303.17 10.988 0 20.778-1.116 31.468-5.393 12.193-4.879 17.402-10.867 17.585-18.454l-.002-.901c.008.303.009.603.002.901l.029 16.193V739.402c-.013-.024-.018-.048-.031-.072a15.407 15.407 0 0 0-.101-2.443c.07-.203.132-.332.132-.332h-.167c-.728-5.066-4.049-9.728-10.101-13.273-6.904-4.045-16.285-7.461-26.344-7.461zm33.817 15.389a37.166 37.166 0 0 0-1.338-1.917c.499.621.946 1.26 1.338 1.917z"/><g opacity=".5"><linearGradient id="SVGID_91_" x1="1150.823" x2="1189.892" y1="814.494" y2="814.494" gradientTransform="matrix(-1 0 0 1 1828.601 0)" gradientUnits="userSpaceOnUse"><stop offset=".425" stop-color="#fff"/><stop offset="1" stop-color="#2484c6" stop-opacity="0"/></linearGradient><path fill="url(#SVGID_91_)" d="M677.778 877.011V744.876s-8.286-13.371-22.528-11.938-16.541 9.551-16.541 9.551V889.57s.177 3.589 2.491 4.831c7.01 3.76 17.759 2.058 34.16-10.79 2.422-1.897 1.356-3.381 2.418-6.6z"/></g><path fill="#2a2f6d" d="M619.142 871.304c1.986-2.135 3.224-5.111 3.224-8.402 0-6.479-4.786-11.751-10.669-11.751-5.883 0-10.669 5.271-10.669 11.751 0 3.292 1.238 6.267 3.224 8.402.059.064.123.121.183.183.174.178.347.357.531.522.183.166.376.317.569.469.075.058.145.123.221.179.263.196.536.377.816.547l.047.031a9.946 9.946 0 0 0 2.895 1.169l.037.01c.31.07.626.12.945.159.039.005.076.015.115.019.357.04.719.061 1.086.061l.012-.001c.362 0 .721-.021 1.074-.06.046-.005.09-.017.136-.023.312-.039.621-.088.923-.156.019-.004.037-.011.056-.016a9.944 9.944 0 0 0 2.876-1.164c.018-.011.035-.024.054-.035.277-.168.548-.348.809-.542.079-.058.151-.125.229-.185.191-.15.381-.3.562-.463.185-.166.359-.346.533-.525.06-.06.123-.116.181-.179z" opacity=".43"/><path fill="#198acb" d="M612.02 858.69a2.942 2.942 0 0 0-3.829-1.414c-2.968 1.285-6.576 2.474-10.589 3.515-21.65 5.62-55.09 6.94-63.84-4.55-6.16-8.08 1.69-23.33 22.11-42.94 17.24-16.57 24.37-30.69 21.82-43.18-3.99-19.49-31.01-29.71-54.86-38.73-17.93-6.79-36.47-13.8-37.18-22.38-1.17-14.26 13.17-29.6 25.4-39.96 10.362-8.776 21.033-15.539 25.695-18.358a2.905 2.905 0 0 0 1.029-3.914l-.583-1.038a2.905 2.905 0 0 0-4.026-1.073c-11.565 6.941-56.866 36.047-54.485 64.922 1.07 12.98 19.89 20.1 41.68 28.34 22.15 8.38 47.25 17.88 50.47 33.6 2.01 9.8-4.66 22.16-19.82 36.72-23.99 23.06-31.66 40.63-22.82 52.23 6.4 8.4 20.82 11.5 36.41 11.5 11.73 0 24.12-1.76 34.23-4.35 5.55-1.42 10.41-3.09 14.1-4.86v-.06a9.173 9.173 0 0 0-.912-4.02z"/><linearGradient id="SVGID_92_" x1="-912.813" x2="-823.186" y1="1318.964" y2="1318.964" gradientTransform="rotate(-12.393 2722.495 -3153.54) scale(.2103)" gradientUnits="userSpaceOnUse"><stop offset="0" stop-color="#cde8f9"/><stop offset="1" stop-color="#fff" stop-opacity="0"/></linearGradient><circle cx="620.934" cy="820.498" r="9.425" fill="url(#SVGID_92_)"/><linearGradient id="SVGID_93_" x1="-989.331" x2="-899.703" y1="1444.058" y2="1444.058" gradientTransform="rotate(-12.432 3165.052 -3027.617) scale(.145)" gradientUnits="userSpaceOnUse"><stop offset="0" stop-color="#cde8f9"/><stop offset="1" stop-color="#fff" stop-opacity="0"/></linearGradient><circle cx="634.766" cy="841.729" r="6.497" fill="url(#SVGID_93_)"/><linearGradient id="SVGID_94_" x1="-1125.023" x2="-1035.396" y1="1551.431" y2="1551.431" gradientTransform="matrix(.0898 -.0197 .0197 .0898 716.931 692.26)" gradientUnits="userSpaceOnUse"><stop offset="0" stop-color="#cde8f9"/><stop offset="1" stop-color="#fff" stop-opacity="0"/></linearGradient><circle cx="650.566" cy="852.837" r="4.119" fill="url(#SVGID_94_)"/></g><g id="bubbles"><linearGradient id="SVGID_95_" x1="684.501" x2="774.129" y1="979.002" y2="979.002" gradientTransform="matrix(.284 -.0624 .0624 .284 765.723 397.128)" gradientUnits="userSpaceOnUse"><stop offset=".061" stop-color="#28a8e0"/><stop offset=".998" stop-color="#29abe2" stop-opacity="0"/></linearGradient><circle cx="1033.924" cy="629.65" r="13.031" fill="url(#SVGID_95_)"/><linearGradient id="SVGID_96_" x1="1021.111" x2="1110.739" y1="609.816" y2="609.816" gradientTransform="matrix(.284 -.0624 .0624 .284 765.723 397.128)" gradientUnits="userSpaceOnUse"><stop offset=".061" stop-color="#28a8e0"/><stop offset=".998" stop-color="#29abe2" stop-opacity="0"/></linearGradient><circle cx="1106.487" cy="503.793" r="13.031" fill="url(#SVGID_96_)"/><linearGradient id="SVGID_97_" x1="230.562" x2="320.189" y1="212.876" y2="212.876" gradientTransform="matrix(.284 -.0624 .0624 .284 765.723 397.128)" gradientUnits="userSpaceOnUse"><stop offset=".061" stop-color="#28a8e0"/><stop offset=".998" stop-color="#29abe2" stop-opacity="0"/></linearGradient><circle cx="857.209" cy="440.399" r="13.031" fill="url(#SVGID_97_)"/><linearGradient id="SVGID_98_" x1="-115.495" x2="-25.868" y1="568.327" y2="568.327" gradientTransform="matrix(.284 -.0624 .0624 .284 765.723 397.128)" gradientUnits="userSpaceOnUse"><stop offset="0" stop-color="#bd8aae"/><stop offset="1" stop-color="#2484c6" stop-opacity="0"/></linearGradient><circle cx="781.106" cy="562.945" r="13.031" fill="url(#SVGID_98_)"/><linearGradient id="SVGID_99_" x1="1350.661" x2="1440.289" y1="1000.721" y2="1000.721" gradientTransform="matrix(.284 -.0624 .0624 .284 765.723 397.128)" gradientUnits="userSpaceOnUse"><stop offset="0" stop-color="#bd8aae"/><stop offset="1" stop-color="#2484c6" stop-opacity="0"/></linearGradient><circle cx="1224.466" cy="594.244" r="13.031" fill="url(#SVGID_99_)"/></g></svg>